<svg width="24" height="24" viewBox="0 0 24 24" fill="none" xmlns="http://www.w3.org/2000/svg">
<path d="M10.5831 12.3615L6.1035 16.8486C5.64123 17.3109 5.62023 18.134 6.11222 18.6172C6.60282 19.1067 7.41528 19.0857 7.88487 18.6259L7.88488 18.6259L7.88675 18.6241L12.3661 14.1447L16.8377 18.6239L16.8379 18.6241C17.3186 19.1048 18.1345 19.1048 18.6151 18.6145C19.0897 18.1302 19.105 17.3247 18.6211 16.8408L14.1493 12.3615L18.6211 7.8897C19.1028 7.408 19.1003 6.60126 18.6133 6.11427L18.6133 6.11426L18.6115 6.11249C18.1272 5.63789 17.3218 5.62256 16.8379 6.10646L16.8377 6.1066L12.3661 10.5858L7.88675 6.10646L7.88675 6.10645L7.88487 6.10461C7.41602 5.64552 6.59357 5.62216 6.10954 6.11606C5.63244 6.6029 5.63771 7.41609 6.1035 7.88188L10.5831 12.3615Z" fill="#FE4545" stroke="#FE4545" stroke-width="0.5"/>
</svg>
