<svg width="517" height="127" viewBox="0 0 517 127" fill="none" xmlns="http://www.w3.org/2000/svg">
<path d="M0.69873 109.713V69.3741L20.6361 89.776L0.69873 109.713Z" fill="#FD4E05"/>
<path d="M112.167 109.713V69.3741L92.2298 89.776L112.167 109.713Z" fill="#FFB222"/>
<path d="M63.4674 113.753V116.676C63.468 116.712 63.4606 116.748 63.4453 116.781C63.4303 116.815 63.4079 116.844 63.3801 116.867C63.3524 116.891 63.3195 116.907 63.2843 116.917C63.2489 116.926 63.2121 116.927 63.1764 116.92C61.1614 116.56 59.1195 116.372 57.0728 116.358C55.0238 116.372 52.98 116.56 50.9628 116.92C50.9274 116.927 50.8908 116.926 50.8558 116.917C50.8208 116.908 50.7884 116.891 50.761 116.867C50.7336 116.844 50.7119 116.814 50.6976 116.781C50.6833 116.748 50.6768 116.712 50.6785 116.676V113.766C50.6784 113.734 50.6848 113.702 50.6973 113.672C50.7098 113.643 50.7281 113.616 50.7512 113.594C53.1582 111.352 55.995 106.142 56.8546 104.495C56.875 104.455 56.9065 104.421 56.945 104.397C56.9833 104.374 57.0278 104.361 57.0728 104.361C57.1182 104.361 57.1624 104.374 57.2009 104.397C57.2395 104.421 57.2706 104.455 57.291 104.495C58.1509 106.142 60.9809 111.352 63.3946 113.594C63.438 113.636 63.464 113.693 63.4674 113.753Z" fill="#FFA211"/>
<path fill-rule="evenodd" clip-rule="evenodd" d="M0.69873 9.8703V59.0196L50.1981 107.695L49.8586 107.329C50.5645 106.117 52.0475 103.566 52.3323 103.056C52.3625 103.002 52.3978 102.934 52.439 102.854C52.8839 101.992 54.0219 99.7874 56.9493 99.7227C60.148 99.6519 61.4406 102.293 61.7148 102.904C61.9197 103.361 63.3019 105.753 63.6755 106.299L79.8312 89.931L20.6361 30.2722L0.69873 9.8703Z" fill="#FD4E05"/>
<path fill-rule="evenodd" clip-rule="evenodd" d="M112.167 17.7889V22.0863L67.7615 65.2408L65.6726 62.9735L112.167 17.7889ZM69.2785 66.8873L112.167 25.2069V29.5106L71.3705 69.1578L69.2785 66.8873ZM72.8874 70.8043L74.9764 73.0716L112.167 36.9287V32.6312L72.8874 70.8043ZM78.585 76.9883L76.4933 74.7181L112.167 40.0493V44.3523L78.585 76.9883ZM80.102 78.6348L82.1928 80.9041L112.167 51.7743V47.473L80.102 78.6348ZM85.7996 84.8188L83.7098 82.5506L112.167 54.895V59.0196L94.4069 76.454L85.7996 84.8188ZM112.167 14.6682L64.1556 61.327L62.0297 59.0196L92.2298 30.2722L112.167 9.87031V14.6682Z" fill="url(#paint0_linear_423_166)"/>
<path d="M206.45 34.3656V92.3976H198.819V49.1252L179.53 92.3976H174.163L154.791 49.0413V92.3976H147.16V34.3656H155.378L176.847 82.3342L198.315 34.3656H206.45ZM239.435 93.1523C235.13 93.1523 231.217 92.1739 227.694 90.2172C224.228 88.2604 221.489 85.493 219.476 81.9149C217.519 78.2809 216.541 74.0879 216.541 69.3357C216.541 64.6395 217.547 60.5024 219.56 56.9243C221.628 53.2903 224.424 50.5229 227.946 48.622C231.468 46.6653 235.41 45.6869 239.77 45.6869C244.131 45.6869 248.073 46.6653 251.595 48.622C255.117 50.5229 257.884 53.2623 259.897 56.8404C261.966 60.4185 263 64.5836 263 69.3357C263 74.0879 261.938 78.2809 259.813 81.9149C257.745 85.493 254.921 88.2604 251.343 90.2172C247.765 92.1739 243.796 93.1523 239.435 93.1523ZM239.435 86.4434C242.174 86.4434 244.746 85.8005 247.15 84.5146C249.554 83.2287 251.483 81.2999 252.937 78.7282C254.446 76.1564 255.201 73.0256 255.201 69.3357C255.201 65.6458 254.474 62.515 253.02 59.9433C251.567 57.3715 249.666 55.4707 247.318 54.2407C244.97 52.9548 242.426 52.3119 239.686 52.3119C236.891 52.3119 234.319 52.9548 231.971 54.2407C229.679 55.4707 227.834 57.3715 226.436 59.9433C225.039 62.515 224.34 65.6458 224.34 69.3357C224.34 73.0815 225.011 76.2403 226.353 78.812C227.75 81.3838 229.595 83.3126 231.887 84.5985C234.18 85.8284 236.695 86.4434 239.435 86.4434ZM280.665 30.3403V92.3976H273.034V30.3403H280.665ZM335.602 67.6585C335.602 69.1121 335.518 70.6496 335.351 72.2709H298.619C298.899 76.7994 300.436 80.3495 303.232 82.9212C306.083 85.4371 309.521 86.695 313.547 86.695C316.845 86.695 319.585 85.9403 321.765 84.4307C324.001 82.8653 325.567 80.7968 326.461 78.225H334.68C333.45 82.6417 330.99 86.2477 327.3 89.0431C323.61 91.7826 319.026 93.1523 313.547 93.1523C309.186 93.1523 305.272 92.1739 301.806 90.2172C298.396 88.2604 295.712 85.493 293.755 81.9149C291.799 78.2809 290.82 74.0879 290.82 69.3357C290.82 64.5836 291.771 60.4185 293.671 56.8404C295.572 53.2623 298.228 50.5229 301.638 48.622C305.105 46.6653 309.074 45.6869 313.547 45.6869C317.907 45.6869 321.765 46.6373 325.119 48.5382C328.474 50.439 331.046 53.0667 332.835 56.4211C334.68 59.7196 335.602 63.4654 335.602 67.6585ZM327.719 66.0651C327.719 63.158 327.076 60.6701 325.79 58.6015C324.504 56.477 322.743 54.8837 320.507 53.8214C318.327 52.7033 315.895 52.1442 313.211 52.1442C309.354 52.1442 306.055 53.3742 303.316 55.8341C300.632 58.294 299.095 61.7044 298.703 66.0651H327.719ZM342.824 69.3357C342.824 64.5836 343.774 60.4464 345.675 56.9243C347.576 53.3462 350.204 50.5788 353.558 48.622C356.969 46.6653 360.854 45.6869 365.215 45.6869C370.862 45.6869 375.502 47.0566 379.136 49.7961C382.826 52.5355 385.258 56.3372 386.432 61.2012H378.213C377.431 58.4058 375.893 56.1975 373.601 54.5762C371.365 52.9548 368.569 52.1442 365.215 52.1442C360.854 52.1442 357.332 53.6537 354.648 56.6727C351.965 59.6358 350.623 63.8568 350.623 69.3357C350.623 74.8706 351.965 79.1475 354.648 82.1665C357.332 85.1855 360.854 86.695 365.215 86.695C368.569 86.695 371.365 85.9123 373.601 84.3469C375.837 82.7815 377.375 80.5452 378.213 77.638H386.432C385.202 82.3342 382.742 86.108 379.052 88.9593C375.362 91.7546 370.75 93.1523 365.215 93.1523C360.854 93.1523 356.969 92.1739 353.558 90.2172C350.204 88.2604 347.576 85.493 345.675 81.9149C343.774 78.3368 342.824 74.1438 342.824 69.3357ZM437.371 46.4416V92.3976H429.74V85.6048C428.286 87.9529 426.245 89.7979 423.618 91.1396C421.046 92.4255 418.195 93.0685 415.064 93.0685C411.486 93.0685 408.271 92.3417 405.42 90.8881C402.569 89.3786 400.304 87.1423 398.627 84.1792C397.006 81.2161 396.195 77.61 396.195 73.3611V46.4416H403.743V72.3547C403.743 76.8832 404.889 80.3775 407.181 82.8374C409.473 85.2414 412.604 86.4434 416.573 86.4434C420.655 86.4434 423.869 85.1855 426.217 82.6697C428.565 80.1538 429.74 76.4919 429.74 71.6838V46.4416H437.371ZM457.887 30.3403V92.3976H450.256V30.3403H457.887ZM512.824 67.6585C512.824 69.1121 512.741 70.6496 512.573 72.2709H475.842C476.121 76.7994 477.659 80.3495 480.454 82.9212C483.305 85.4371 486.744 86.695 490.769 86.695C494.067 86.695 496.807 85.9403 498.987 84.4307C501.224 82.8653 502.789 80.7968 503.684 78.225H511.902C510.672 82.6417 508.212 86.2477 504.522 89.0431C500.832 91.7826 496.248 93.1523 490.769 93.1523C486.408 93.1523 482.495 92.1739 479.028 90.2172C475.618 88.2604 472.934 85.493 470.978 81.9149C469.021 78.2809 468.042 74.0879 468.042 69.3357C468.042 64.5836 468.993 60.4185 470.894 56.8404C472.795 53.2623 475.45 50.5229 478.861 48.622C482.327 46.6653 486.296 45.6869 490.769 45.6869C495.13 45.6869 498.987 46.6373 502.342 48.5382C505.696 50.439 508.268 53.0667 510.057 56.4211C511.902 59.7196 512.824 63.4654 512.824 67.6585ZM504.941 66.0651C504.941 63.158 504.298 60.6701 503.013 58.6015C501.727 56.477 499.966 54.8837 497.729 53.8214C495.549 52.7033 493.117 52.1442 490.433 52.1442C486.576 52.1442 483.277 53.3742 480.538 55.8341C477.854 58.294 476.317 61.7044 475.925 66.0651H504.941Z" fill="#0F0B1C"/>
<defs>
<linearGradient id="paint0_linear_423_166" x1="118.796" y1="25.5762" x2="66.1163" y2="78.3375" gradientUnits="userSpaceOnUse">
<stop stop-color="#FF5C00"/>
<stop offset="1" stop-color="#FFC328"/>
</linearGradient>
</defs>
</svg>
