<svg width="198" height="47" viewBox="0 0 198 47" fill="none" xmlns="http://www.w3.org/2000/svg">
<path d="M0.385742 40.0368V25.4916L7.5746 32.848L0.385742 40.0368Z" fill="#FD4E05"/>
<path d="M40.5781 40.0368V25.4916L33.3893 32.848L40.5781 40.0368Z" fill="#FFB222"/>
<path d="M23.1912 41.493V42.547C23.1914 42.56 23.1886 42.5731 23.1828 42.5851C23.1771 42.597 23.1686 42.6076 23.1581 42.616C23.1475 42.6245 23.1351 42.6306 23.1217 42.6339C23.1083 42.6372 23.0943 42.6376 23.0808 42.6351C22.3163 42.5054 21.5416 42.4375 20.765 42.4325C19.9876 42.4375 19.2122 42.5054 18.4468 42.6351C18.4334 42.6377 18.4195 42.6373 18.4062 42.634C18.393 42.6307 18.3807 42.6245 18.3703 42.616C18.3599 42.6076 18.3517 42.5969 18.3462 42.5849C18.3408 42.5729 18.3383 42.5599 18.339 42.547V41.4978C18.3389 41.4863 18.3414 41.4748 18.3461 41.4641C18.3508 41.4535 18.3578 41.4439 18.3666 41.4358C19.2798 40.6275 20.3561 38.7487 20.6822 38.155C20.69 38.1404 20.7019 38.1283 20.7165 38.1197C20.731 38.1112 20.7479 38.1067 20.765 38.1067C20.7822 38.1067 20.799 38.1112 20.8136 38.1197C20.8282 38.1283 20.8401 38.1404 20.8478 38.155C21.174 38.7487 22.2478 40.6275 23.1636 41.4358C23.18 41.4509 23.1899 41.4714 23.1912 41.493Z" fill="#FFA211"/>
<path fill-rule="evenodd" clip-rule="evenodd" d="M0.385742 4.03638V21.7582L18.2429 39.318L18.1123 39.1774C18.3668 38.7404 18.9015 37.8205 19.0042 37.6367C19.0151 37.6172 19.0279 37.5926 19.0427 37.5638C19.2031 37.253 19.6135 36.4581 20.669 36.4347C21.8224 36.4092 22.2884 37.3615 22.3873 37.5818C22.4611 37.7463 22.9585 38.6074 23.0939 38.8055L28.9187 32.904L7.5746 11.3927L0.385742 4.03638Z" fill="#FD4E05"/>
<path fill-rule="evenodd" clip-rule="evenodd" d="M40.5792 6.89083V8.44219L24.5683 24.002L23.8142 23.1835L40.5792 6.89083ZM25.1152 24.5956L40.5792 9.56742V11.1171L25.8686 25.4132L25.1152 24.5956ZM26.4155 26.0069L27.1692 26.8249L40.5792 13.7928V12.2424L26.4155 26.0069ZM28.471 28.2379L27.7162 27.4186L40.5792 14.9181V16.4709L28.471 28.2379ZM29.018 28.8316L29.7707 29.6485L40.5792 19.1445V17.5962L29.018 28.8316ZM31.0714 31.0603L30.3176 30.2421L40.5792 20.2697V21.7582L34.2443 27.9768L31.0714 31.0603ZM40.5792 5.76561L23.2672 22.5898L22.501 21.7582L33.3903 11.3927L40.5792 4.03632V5.76561Z" fill="url(#paint0_linear_311_3318)"/>
<path d="M83.8652 13.2885V34.3281H81.0984V18.6396L74.1054 34.3281H72.1596L65.1362 18.6092V34.3281H62.3694V13.2885H65.349L73.1325 30.6796L80.916 13.2885H83.8652ZM95.824 34.6018C94.2632 34.6018 92.8444 34.247 91.5674 33.5376C90.3107 32.8282 89.3175 31.8249 88.5878 30.5276C87.8784 29.2101 87.5236 27.6899 87.5236 25.967C87.5236 24.2644 87.8885 22.7644 88.6182 21.4672C89.3682 20.1497 90.3816 19.1463 91.6586 18.4572C92.9356 17.7477 94.3646 17.393 95.9456 17.393C97.5266 17.393 98.9556 17.7477 100.233 18.4572C101.51 19.1463 102.513 20.1395 103.243 21.4368C103.993 22.734 104.368 24.2441 104.368 25.967C104.368 27.6899 103.982 29.2101 103.212 30.5276C102.462 31.8249 101.439 32.8282 100.141 33.5376C98.8441 34.247 97.405 34.6018 95.824 34.6018ZM95.824 32.1694C96.8172 32.1694 97.7496 31.9363 98.6212 31.4701C99.4927 31.0039 100.192 30.3046 100.719 29.3723C101.266 28.4399 101.54 27.3048 101.54 25.967C101.54 24.6292 101.276 23.4941 100.749 22.5617C100.222 21.6293 99.5333 20.9402 98.682 20.4942C97.8306 20.028 96.9084 19.7949 95.9152 19.7949C94.9017 19.7949 93.9693 20.028 93.118 20.4942C92.287 20.9402 91.6181 21.6293 91.1113 22.5617C90.6046 23.4941 90.3512 24.6292 90.3512 25.967C90.3512 27.325 90.5945 28.4703 91.0809 29.4027C91.5877 30.335 92.2566 31.0343 93.0876 31.5005C93.9186 31.9465 94.8308 32.1694 95.824 32.1694ZM110.772 11.8291V34.3281H108.005V11.8291H110.772ZM130.69 25.3589C130.69 25.8859 130.659 26.4433 130.598 27.0311H117.281C117.383 28.673 117.94 29.9601 118.954 30.8925C119.987 31.8046 121.234 32.2606 122.693 32.2606C123.889 32.2606 124.882 31.987 125.673 31.4397C126.484 30.8722 127.051 30.1222 127.376 29.1898H130.355C129.909 30.7911 129.017 32.0985 127.68 33.112C126.342 34.1052 124.68 34.6018 122.693 34.6018C121.112 34.6018 119.694 34.247 118.437 33.5376C117.2 32.8282 116.227 31.8249 115.518 30.5276C114.809 29.2101 114.454 27.6899 114.454 25.967C114.454 24.2441 114.798 22.734 115.488 21.4368C116.177 20.1395 117.14 19.1463 118.376 18.4572C119.633 17.7477 121.072 17.393 122.693 17.393C124.274 17.393 125.673 17.7376 126.889 18.4268C128.105 19.1159 129.038 20.0686 129.686 21.2847C130.355 22.4806 130.69 23.8387 130.69 25.3589ZM127.832 24.7812C127.832 23.7272 127.599 22.8252 127.132 22.0753C126.666 21.305 126.028 20.7273 125.217 20.3422C124.426 19.9368 123.545 19.7341 122.572 19.7341C121.173 19.7341 119.977 20.1801 118.984 21.0719C118.011 21.9638 117.454 23.2002 117.312 24.7812H127.832ZM133.308 25.967C133.308 24.2441 133.653 22.7441 134.342 21.4672C135.031 20.1699 135.984 19.1666 137.2 18.4572C138.436 17.7477 139.845 17.393 141.426 17.393C143.473 17.393 145.155 17.8896 146.473 18.8828C147.811 19.876 148.692 21.2543 149.118 23.0178H146.139C145.855 22.0043 145.297 21.2037 144.466 20.6159C143.656 20.028 142.642 19.7341 141.426 19.7341C139.845 19.7341 138.568 20.2814 137.595 21.376C136.622 22.4502 136.136 23.9806 136.136 25.967C136.136 27.9737 136.622 29.5243 137.595 30.6188C138.568 31.7134 139.845 32.2606 141.426 32.2606C142.642 32.2606 143.656 31.9769 144.466 31.4093C145.277 30.8418 145.835 30.031 146.139 28.977H149.118C148.672 30.6796 147.78 32.0478 146.443 33.0816C145.105 34.095 143.433 34.6018 141.426 34.6018C139.845 34.6018 138.436 34.247 137.2 33.5376C135.984 32.8282 135.031 31.8249 134.342 30.5276C133.653 29.2304 133.308 27.7102 133.308 25.967ZM167.586 17.6667V34.3281H164.82V31.8654C164.293 32.7167 163.553 33.3856 162.6 33.8721C161.668 34.3383 160.634 34.5714 159.499 34.5714C158.202 34.5714 157.036 34.3079 156.002 33.7809C154.969 33.2336 154.148 32.4228 153.54 31.3485C152.952 30.2742 152.658 28.9669 152.658 27.4264V17.6667H155.394V27.0615C155.394 28.7034 155.81 29.9702 156.641 30.8621C157.472 31.7336 158.607 32.1694 160.046 32.1694C161.526 32.1694 162.691 31.7134 163.543 30.8012C164.394 29.8891 164.82 28.5615 164.82 26.8183V17.6667H167.586ZM175.025 11.8291V34.3281H172.258V11.8291H175.025ZM194.942 25.3589C194.942 25.8859 194.912 26.4433 194.851 27.0311H181.534C181.635 28.673 182.193 29.9601 183.206 30.8925C184.24 31.8046 185.486 32.2606 186.946 32.2606C188.142 32.2606 189.135 31.987 189.926 31.4397C190.736 30.8722 191.304 30.1222 191.628 29.1898H194.608C194.162 30.7911 193.27 32.0985 191.932 33.112C190.594 34.1052 188.932 34.6018 186.946 34.6018C185.365 34.6018 183.946 34.247 182.689 33.5376C181.453 32.8282 180.48 31.8249 179.771 30.5276C179.061 29.2101 178.706 27.6899 178.706 25.967C178.706 24.2441 179.051 22.734 179.74 21.4368C180.429 20.1395 181.392 19.1463 182.629 18.4572C183.885 17.7477 185.324 17.393 186.946 17.393C188.527 17.393 189.926 17.7376 191.142 18.4268C192.358 19.1159 193.29 20.0686 193.939 21.2847C194.608 22.4806 194.942 23.8387 194.942 25.3589ZM192.084 24.7812C192.084 23.7272 191.851 22.8252 191.385 22.0753C190.919 21.305 190.28 20.7273 189.469 20.3422C188.679 19.9368 187.797 19.7341 186.824 19.7341C185.426 19.7341 184.23 20.1801 183.237 21.0719C182.264 21.9638 181.706 23.2002 181.564 24.7812H192.084Z" fill="white"/>
<defs>
<linearGradient id="paint0_linear_311_3318" x1="42.9692" y1="9.69935" x2="23.9748" y2="28.7236" gradientUnits="userSpaceOnUse">
<stop stop-color="#FF5C00"/>
<stop offset="1" stop-color="#FFC328"/>
</linearGradient>
</defs>
</svg>
