<svg width="35" height="35" viewBox="0 0 35 35" fill="none" xmlns="http://www.w3.org/2000/svg">
<g clip-path="url(#clip0_311_3242)">
<path d="M17.075 34.2083C26.5053 34.2083 34.15 26.5635 34.15 17.1333C34.15 7.703 26.5053 0.0582581 17.075 0.0582581C7.64474 0.0582581 0 7.703 0 17.1333C0 26.5635 7.64474 34.2083 17.075 34.2083Z" fill="#F0F0F0"/>
<path d="M3.52964 6.73766C2.18838 8.48271 1.17702 10.494 0.588135 12.679H9.471L3.52964 6.73766Z" fill="#0052B4"/>
<path d="M33.5617 12.679C32.9728 10.4941 31.9614 8.48277 30.6202 6.73772L24.679 12.679H33.5617Z" fill="#0052B4"/>
<path d="M0.588135 21.5877C1.17709 23.7726 2.18845 25.784 3.52964 27.5289L9.4708 21.5877H0.588135Z" fill="#0052B4"/>
<path d="M27.4706 3.58805C25.7255 2.2468 23.7143 1.23544 21.5293 0.646484V9.52929L27.4706 3.58805Z" fill="#0052B4"/>
<path d="M6.6792 30.6785C8.42425 32.0197 10.4356 33.0311 12.6205 33.62V24.7373L6.6792 30.6785Z" fill="#0052B4"/>
<path d="M12.6204 0.646484C10.4355 1.23544 8.42418 2.2468 6.6792 3.58799L12.6204 9.52922V0.646484Z" fill="#0052B4"/>
<path d="M21.5293 33.62C23.7142 33.0311 25.7255 32.0197 27.4705 30.6785L21.5293 24.7373V33.62Z" fill="#0052B4"/>
<path d="M24.679 21.5877L30.6202 27.529C31.9614 25.784 32.9728 23.7726 33.5617 21.5877H24.679Z" fill="#0052B4"/>
<path d="M34.0055 14.9061H19.3023H19.3022V0.202795C18.5731 0.107882 17.8298 0.0582581 17.075 0.0582581C16.32 0.0582581 15.5769 0.107882 14.8478 0.202795V14.906V14.906H0.144537C0.0496242 15.6351 0 16.3784 0 17.1333C0 17.8882 0.0496242 18.6314 0.144537 19.3604H14.8477H14.8478V34.0637C15.5769 34.1586 16.32 34.2083 17.075 34.2083C17.8298 34.2083 18.5731 34.1587 19.3022 34.0637V19.3605V19.3605H34.0055C34.1004 18.6314 34.15 17.8882 34.15 17.1333C34.15 16.3784 34.1004 15.6351 34.0055 14.9061V14.9061Z" fill="#D80027"/>
<path d="M21.5293 21.5877L29.1488 29.2072C29.4992 28.8568 29.8335 28.4906 30.1524 28.1109L23.6291 21.5876H21.5293V21.5877Z" fill="#D80027"/>
<path d="M12.6207 21.5877H12.6206L5.00122 29.2071C5.35153 29.5575 5.71777 29.8918 6.09742 30.2108L12.6207 23.6873V21.5877Z" fill="#D80027"/>
<path d="M12.6207 12.679V12.6789L5.00125 5.05937C4.65081 5.40968 4.31651 5.77592 3.99756 6.15557L10.5209 12.679H12.6207V12.679Z" fill="#D80027"/>
<path d="M21.5293 12.679L29.1488 5.05944C28.7985 4.709 28.4323 4.37471 28.0526 4.05582L21.5293 10.5792V12.679Z" fill="#D80027"/>
</g>
<defs>
<clipPath id="clip0_311_3242">
<rect width="34.15" height="34.15" fill="white" transform="translate(0 0.0582581)"/>
</clipPath>
</defs>
</svg>
