<svg width="35" height="35" viewBox="0 0 35 35" fill="none" xmlns="http://www.w3.org/2000/svg">
<g clip-path="url(#clip0_311_3260)">
<path d="M34.5291 18.7291H0.531738V18.7296H34.5291V18.7291Z" fill="#C42126"/>
<path d="M32.7573 9.40846H2.30273V9.40897H32.7573V9.40846Z" fill="#C42126"/>
<path d="M33.9671 12.5149H1.09155V12.5154H33.9671V12.5149Z" fill="#C42126"/>
<path d="M7.79381 31.1554H27.2665L27.2675 31.1543H7.79272L7.79381 31.1554Z" fill="#C42126"/>
<path d="M17.5299 0.0582581C17.1945 0.0582581 16.8618 0.0703693 16.5315 0.0892572H18.5285C18.1979 0.0703693 17.8653 0.0582581 17.5299 0.0582581Z" fill="#C42126"/>
<path d="M34.5336 15.622H0.525391V15.6225H34.5336V15.622Z" fill="#C42126"/>
<path d="M22.5764 6.30198H30.7298C29.7614 5.12308 28.6358 4.07949 27.3889 3.19601H21.2664C21.773 4.08728 22.2086 5.13894 22.5764 6.30198Z" fill="#E7E7E7"/>
<path d="M21.2665 3.19602H27.389C24.858 1.40247 21.8192 0.279296 18.5284 0.0892639H18.0027C19.5516 0.284198 20.263 1.43044 21.2665 3.19602Z" fill="#DC3027"/>
<path d="M33.9682 12.5151C33.6646 11.4325 33.2575 10.3937 32.7572 9.40918H23.377C23.567 10.4064 23.717 11.4481 23.828 12.5151H33.9682Z" fill="#E7E7E7"/>
<path d="M22.8492 9.40867H32.7567C32.1921 8.29826 31.5139 7.25625 30.7298 6.3022H22.0752C22.3804 7.26815 22.6395 8.31015 22.8492 9.40867Z" fill="#DC3027"/>
<path d="M24.187 18.7284H34.5277C34.5768 18.203 34.6046 17.6705 34.6046 17.1324C34.6046 16.6232 34.5779 16.1204 34.5342 15.6222H24.1895C24.2231 16.6553 24.2226 17.6959 24.187 18.7284Z" fill="#E7E7E7"/>
<path d="M34.5346 15.6217C34.4411 14.5549 34.2488 13.517 33.9682 12.5157H23.3923C23.4985 13.5328 23.5687 14.5735 23.6029 15.6217H34.5346Z" fill="#DC3027"/>
<path d="M23.1985 24.9416H32.7124C33.2198 23.9581 33.6333 22.9186 33.9434 21.8351H23.6585C23.5452 22.9038 23.3915 23.9452 23.1985 24.9416Z" fill="#E7E7E7"/>
<path d="M33.9437 21.8349C34.2303 20.8339 34.4293 19.796 34.5282 18.729H23.865C23.8285 19.778 23.7563 20.8183 23.6479 21.8349H33.9437Z" fill="#DC3027"/>
<path d="M27.2674 31.1543C28.5324 30.2744 29.6739 29.2297 30.6577 28.0484H22.6464C22.2719 29.2162 21.8273 30.2663 21.3115 31.1543H27.2674Z" fill="#E7E7E7"/>
<path d="M22.3447 28.0482H30.6575C31.4507 27.0952 32.1393 26.0532 32.7121 24.9417H23.1285C22.9158 26.041 22.654 27.0835 22.3447 28.0482Z" fill="#DC3027"/>
<path d="M16.912 34.1941C16.8771 34.1929 16.8423 34.1913 16.8074 34.1902C16.8423 34.1913 16.8772 34.1929 16.912 34.1941Z" fill="#DC3027"/>
<path d="M17.5298 34.2061C21.1498 34.2061 24.5039 33.0762 27.2664 31.1554H21.0867C19.9899 33.0449 19.2663 34.2061 17.5298 34.2061Z" fill="#DC3027"/>
<path d="M17.5296 34.2061C17.3223 34.2061 17.1163 34.2013 16.9109 34.194C17.1185 34.201 17.3246 34.2061 17.5296 34.2061Z" fill="#C42126"/>
<path d="M21.8319 3.19601H7.6711C6.42392 4.07949 5.29858 5.12301 4.32983 6.30198H23.1417C22.7739 5.13894 22.3385 4.08728 21.8319 3.19601Z" fill="#F3F4F5"/>
<path d="M7.67114 3.19602H21.8319C20.8282 1.43044 19.5516 0.284198 18.0027 0.0892639H16.5315C13.2407 0.279296 10.2019 1.40247 7.67114 3.19602Z" fill="#E73625"/>
<path d="M1.0918 12.5151H24.3664C24.2553 11.4478 24.1054 10.4064 23.9154 9.40918H2.30286C1.80244 10.3938 1.39539 11.4325 1.0918 12.5151Z" fill="#F3F4F5"/>
<path d="M4.32983 6.30199C3.54637 7.25604 2.86751 8.29797 2.30322 9.40846H23.9154C23.7059 8.31015 23.4469 7.26822 23.1416 6.30199C23.1416 6.30199 4.32983 6.30199 4.32983 6.30199Z" fill="#E73625"/>
<path d="M0.455078 17.1324C0.455078 17.6705 0.483123 18.203 0.531932 18.7284H24.5751C24.6108 17.6958 24.6113 16.6555 24.5776 15.6224H0.525443C0.481753 16.1204 0.455078 16.6232 0.455078 17.1324Z" fill="#F3F4F5"/>
<path d="M0.525391 15.6217H24.5773C24.543 14.5733 24.4726 13.5329 24.3667 12.5157H1.09156C0.810889 13.5172 0.618682 14.5549 0.525391 15.6217Z" fill="#E73625"/>
<path d="M24.3579 21.8349H1.11621C1.42629 22.9187 1.84012 23.9579 2.34724 24.9414H23.898C24.091 23.9452 24.2444 22.9038 24.3579 21.8349Z" fill="#F3F4F5"/>
<path d="M1.11622 21.8349H24.3579C24.4661 20.8183 24.5385 19.7777 24.575 18.729H0.531738C0.630653 19.7963 0.829925 20.8339 1.11622 21.8349Z" fill="#E73625"/>
<path d="M7.79264 31.1543H21.7798C22.2956 30.266 22.7404 29.2162 23.1147 28.0484H4.40234C5.38616 29.2297 6.52736 30.2744 7.79264 31.1543Z" fill="#F3F4F5"/>
<path d="M2.34766 24.9416C2.9206 26.0531 3.60911 27.0951 4.40231 28.0481H23.1146C23.4236 27.0835 23.6854 26.041 23.8981 24.9416H2.34766Z" fill="#E73625"/>
<path d="M16.8074 34.1902C16.842 34.1913 16.8764 34.1928 16.911 34.1939C17.1164 34.2012 17.3224 34.206 17.5297 34.206C19.2663 34.206 20.6822 33.0449 21.7792 31.1554H7.7937C10.3709 32.9477 13.4644 34.0508 16.8074 34.1902Z" fill="#E73625"/>
<path d="M17.1768 0.0671234C8.42681 0.245116 1.29512 7.00069 0.527588 15.5939H17.1771V0.0671234H17.1768Z" fill="#283991"/>
<path d="M3.87154 9.73193L4.13167 10.5329H4.97446L4.29265 11.0281L4.55306 11.8296L3.87154 11.3341L3.19024 11.8296L3.45015 11.0281L2.76855 10.5329H3.61135L3.87154 9.73193Z" fill="#EFEFEF"/>
<path d="M3.87154 12.5616L4.13167 13.363H4.97446L4.29265 13.8583L4.55306 14.6598L3.87154 14.1642L3.19024 14.6598L3.45015 13.8583L2.76855 13.363H3.61135L3.87154 12.5616Z" fill="#EFEFEF"/>
<path d="M6.70191 5.48642L6.9621 6.28764H7.80461L7.12302 6.78319L7.38321 7.58412L6.70191 7.08915L6.02032 7.58412L6.28051 6.78319L5.59863 6.28764H6.44143L6.70191 5.48642Z" fill="#EFEFEF"/>
<path d="M6.70191 8.31656L6.9621 9.11778H7.80461L7.12302 9.61275L7.38321 10.4143L6.70191 9.91929L6.02032 10.4143L6.28051 9.61275L5.59863 9.11778H6.44143L6.70191 8.31656Z" fill="#EFEFEF"/>
<path d="M6.70191 11.1467L6.9621 11.9482H7.80461L7.12302 12.4429L7.38321 13.2444L6.70191 12.7489L6.02032 13.2444L6.28051 12.4429L5.59863 11.9482H6.44143L6.70191 11.1467Z" fill="#EFEFEF"/>
<path d="M1.72267 13.2444L1.46226 12.4429L2.14385 11.9479H1.30156L1.28267 11.8895C1.19017 12.1755 1.10661 12.465 1.02954 12.7578L1.04144 12.7489L1.72267 13.2444Z" fill="#EFEFEF"/>
<path d="M3.19012 8.99948L3.87142 8.504L4.55302 8.99948L4.29261 8.19798L4.9742 7.7025H4.1314L3.87121 6.90157L3.61102 7.7025H3.30043C3.24275 7.78987 3.18695 7.87775 3.13086 7.96642L3.4501 8.19798L3.19012 8.99948Z" fill="#EFEFEF"/>
<path d="M6.7017 4.259L7.383 4.75398L7.12281 3.95305L7.80411 3.45757H7.31747C6.90414 3.76655 6.50538 4.09355 6.12227 4.43858L6.01953 4.75398L6.7017 4.259Z" fill="#EFEFEF"/>
<path d="M8.85059 3.33919L9.53218 2.84371L10.2135 3.33919L9.95329 2.53769L10.6346 2.04271H9.79208L9.75675 1.93486C9.47126 2.0807 9.18871 2.23245 8.91259 2.39394L9.11049 2.53761L8.85059 3.33919Z" fill="#EFEFEF"/>
<path d="M9.53216 4.07164L9.79235 4.87235H10.6349L9.95327 5.36784L10.2135 6.16934L9.53216 5.67379L8.85057 6.16934L9.11076 5.36784L8.42896 4.87235H9.27168L9.53216 4.07164Z" fill="#EFEFEF"/>
<path d="M9.53216 6.90178L9.79235 7.70249H10.6349L9.95327 8.19797L10.2135 8.99948L9.53216 8.50393L8.85057 8.99948L9.11076 8.19797L8.42896 7.70249H9.27168L9.53216 6.90178Z" fill="#EFEFEF"/>
<path d="M9.53216 9.73193L9.79235 10.5329H10.6349L9.95327 11.0281L10.2135 11.8296L9.53216 11.3341L8.85057 11.8296L9.11076 11.0281L8.42896 10.5329H9.27168L9.53216 9.73193Z" fill="#EFEFEF"/>
<path d="M9.53216 12.5616L9.79235 13.363H10.6349L9.95327 13.8583L10.2135 14.6598L9.53216 14.1642L8.85057 14.6598L9.11076 13.8583L8.42896 13.363H9.27168L9.53216 12.5616Z" fill="#EFEFEF"/>
<path d="M12.3625 2.65627L12.6227 3.45748H13.4652L12.7839 3.95304L13.0438 4.75397L12.3625 4.25899L11.6807 4.75397L11.9411 3.95304L11.2593 3.45748H12.102L12.3625 2.65627Z" fill="#EFEFEF"/>
<path d="M12.3625 5.48642L12.6227 6.28764H13.4652L12.7839 6.78319L13.0438 7.58412L12.3625 7.08915L11.6807 7.58412L11.9411 6.78319L11.2593 6.28764H12.102L12.3625 5.48642Z" fill="#EFEFEF"/>
<path d="M12.3625 8.31656L12.6227 9.11778H13.4652L12.7839 9.61275L13.0438 10.4143L12.3625 9.91929L11.6807 10.4143L11.9411 9.61275L11.2593 9.11778H12.102L12.3625 8.31656Z" fill="#EFEFEF"/>
<path d="M12.3625 11.1467L12.6227 11.9482H13.4652L12.7839 12.4429L13.0438 13.2444L12.3625 12.7489L11.6807 13.2444L11.9411 12.4429L11.2593 11.9482H12.102L12.3625 11.1467Z" fill="#EFEFEF"/>
<path d="M15.1928 1.24149L15.453 2.0427H16.2955L15.6139 2.53768L15.8741 3.33919L15.1928 2.84364L14.511 3.33919L14.7714 2.53768L14.0896 2.0427H14.9321L15.1928 1.24149Z" fill="#EFEFEF"/>
<path d="M15.1928 4.07164L15.453 4.87235H16.2955L15.6139 5.36784L15.8741 6.16934L15.1928 5.67379L14.511 6.16934L14.7714 5.36784L14.0896 4.87235H14.9321L15.1928 4.07164Z" fill="#EFEFEF"/>
<path d="M15.1928 6.90178L15.453 7.70249H16.2955L15.6139 8.19797L15.8741 8.99948L15.1928 8.50393L14.511 8.99948L14.7714 8.19797L14.0896 7.70249H14.9321L15.1928 6.90178Z" fill="#EFEFEF"/>
<path d="M15.1928 9.73193L15.453 10.5329H16.2955L15.6139 11.0281L15.8741 11.8296L15.1928 11.3341L14.511 11.8296L14.7714 11.0281L14.0896 10.5329H14.9321L15.1928 9.73193Z" fill="#EFEFEF"/>
<path d="M15.1928 12.5616L15.453 13.363H16.2955L15.6139 13.8583L15.8741 14.6598L15.1928 14.1642L14.511 14.6598L14.7714 13.8583L14.0896 13.363H14.9321L15.1928 12.5616Z" fill="#EFEFEF"/>
</g>
<defs>
<clipPath id="clip0_311_3260">
<rect width="34.15" height="34.1478" fill="white" transform="translate(0.454834 0.0582581)"/>
</clipPath>
</defs>
</svg>
