<svg width="43" height="42" viewBox="0 0 43 42" fill="none" xmlns="http://www.w3.org/2000/svg">
<rect x="0.308594" width="42.5421" height="42" rx="7" fill="#8A8A8A" fill-opacity="0.17"/>
<path d="M29.6883 14.0799L23.2533 10.3641C22.2025 9.75739 20.9025 9.75739 19.8408 10.3641L13.4167 14.0799C12.3658 14.6866 11.7158 15.8132 11.7158 17.0374V24.4474C11.7158 25.6607 12.3658 26.7874 13.4167 27.4049L19.8517 31.1207C20.9025 31.7274 22.2025 31.7274 23.2642 31.1207L29.6992 27.4049C30.75 26.7982 31.4 25.6716 31.4 24.4474V17.0374C31.3892 15.8132 30.7392 14.6974 29.6883 14.0799ZM21.5525 15.6941C22.95 15.6941 24.0767 16.8207 24.0767 18.2182C24.0767 19.6157 22.95 20.7424 21.5525 20.7424C20.155 20.7424 19.0283 19.6157 19.0283 18.2182C19.0283 16.8316 20.155 15.6941 21.5525 15.6941ZM24.4558 25.7907H18.6492C17.7717 25.7907 17.2625 24.8157 17.75 24.0899C18.4867 22.9957 19.9167 22.2591 21.5525 22.2591C23.1883 22.2591 24.6183 22.9957 25.355 24.0899C25.8425 24.8049 25.3225 25.7907 24.4558 25.7907Z" fill="white"/>
</svg>
