<svg width="513" height="513" viewBox="0 0 513 513" fill="none" xmlns="http://www.w3.org/2000/svg">
<g clip-path="url(#clip0_64_5781)">
<path d="M477.005 206.346C470.433 201.933 464.497 196.64 459.365 190.613C459.746 182.223 461.432 173.943 464.364 166.072C469.875 147.416 476.738 124.197 463.511 106.03C450.188 87.7175 425.85 87.1031 406.297 86.6028C398.072 86.9314 389.843 86.0469 381.876 83.9778C377.495 77.106 374.15 69.6267 371.948 61.7804C365.424 43.2002 357.296 20.0748 335.531 13.0018C314.411 6.13776 295.458 19.1788 278.745 30.6476C272.029 36.0101 264.488 40.2491 256.416 43.2002C248.34 40.2522 240.796 36.0129 234.078 30.6476C217.365 19.1692 198.406 6.16869 177.291 13.0018C155.531 20.0748 147.406 43.1884 140.875 61.773C138.678 69.5805 135.37 77.0316 131.052 83.8978C123.06 86.0301 114.79 86.94 106.525 86.5964C86.9733 87.0956 62.6351 87.7111 49.3125 106.023C36.0858 124.201 42.9477 147.419 48.4591 166.076C51.3566 173.905 53.0578 182.126 53.5055 190.462C48.3961 196.574 42.4381 201.923 35.8127 206.347C20.0378 218.378 0.411133 233.356 0.411133 256.533C0.411133 279.711 20.0378 294.689 35.817 306.721C42.3892 311.134 48.3248 316.427 53.4575 322.454C53.0766 330.844 51.3899 339.124 48.4581 346.995C42.9477 365.651 36.0847 388.871 49.3114 407.037C62.6341 425.349 86.9722 425.964 106.525 426.464C114.75 426.136 122.979 427.02 130.947 429.089C135.327 435.961 138.672 443.44 140.874 451.287C147.405 469.87 155.53 492.993 177.295 500.068C181.152 501.332 185.184 501.976 189.242 501.975C205.623 501.975 220.581 491.693 234.082 482.423C240.798 477.059 248.339 472.818 256.411 469.867C264.488 472.815 272.032 477.054 278.75 482.419C295.463 493.898 314.416 506.888 335.536 500.065C357.296 492.992 365.421 469.879 371.952 451.294C374.15 443.487 377.458 436.035 381.775 429.169C389.768 427.037 398.037 426.127 406.302 426.471C425.854 425.971 450.192 425.356 463.515 407.044C476.742 388.867 469.88 365.648 464.368 346.991C461.471 339.162 459.77 330.941 459.322 322.605C464.432 316.493 470.39 311.144 477.015 306.72C492.784 294.689 512.411 279.711 512.411 256.533C512.411 233.356 492.784 218.378 477.005 206.346V206.346ZM351.495 218.284L244.828 324.951C242.848 326.932 240.496 328.503 237.908 329.576C235.32 330.648 232.546 331.2 229.744 331.2C226.943 331.2 224.169 330.648 221.581 329.576C218.993 328.503 216.641 326.932 214.661 324.951L161.327 271.617C159.305 269.646 157.695 267.292 156.589 264.693C155.483 262.094 154.905 259.302 154.887 256.478C154.869 253.653 155.412 250.854 156.485 248.241C157.557 245.628 159.138 243.254 161.135 241.257C163.132 239.26 165.506 237.68 168.119 236.607C170.731 235.535 173.531 234.992 176.355 235.009C179.179 235.027 181.972 235.606 184.571 236.711C187.17 237.817 189.523 239.428 191.495 241.45L229.744 279.7L321.327 188.116C323.299 186.094 325.653 184.484 328.251 183.378C330.85 182.272 333.643 181.694 336.467 181.676C339.291 181.658 342.091 182.201 344.704 183.274C347.316 184.346 349.69 185.927 351.687 187.924C353.684 189.921 355.265 192.295 356.337 194.908C357.41 197.52 357.953 200.32 357.935 203.144C357.917 205.968 357.339 208.761 356.233 211.36C355.128 213.959 353.517 216.312 351.495 218.284V218.284Z" fill="url(#paint0_linear_64_5781)"/>
</g>
<defs>
<linearGradient id="paint0_linear_64_5781" x1="114.662" y1="11.0974" x2="413.49" y2="429.508" gradientUnits="userSpaceOnUse">
<stop stop-color="#5EE2A6"/>
<stop offset="1" stop-color="#00B031"/>
</linearGradient>
<clipPath id="clip0_64_5781">
<rect width="512" height="512" fill="white" transform="translate(0.411133 0.533447)"/>
</clipPath>
</defs>
</svg>
